<?xml version="1.0" encoding="UTF-8" standalone="no"?>
<!-- Created with Inkscape (http://www.inkscape.org/) -->

<svg
   xmlns:dc="http://purl.org/dc/elements/1.1/"
   xmlns:cc="http://creativecommons.org/ns#"
   xmlns:rdf="http://www.w3.org/1999/02/22-rdf-syntax-ns#"
   xmlns:svg="http://www.w3.org/2000/svg"
   xmlns="http://www.w3.org/2000/svg"
   xmlns:sodipodi="http://sodipodi.sourceforge.net/DTD/sodipodi-0.dtd"
   xmlns:inkscape="http://www.inkscape.org/namespaces/inkscape"
   width="234"
   height="234"
   viewBox="0 0 234 234"
   id="svg2"
   version="1.1"
   inkscape:version="0.91 r13725"
   sodipodi:docname="jr-logo.svg">
  <defs
     id="defs4" />
  <sodipodi:namedview
     id="base"
     pagecolor="#ffffff"
     bordercolor="#666666"
     borderopacity="1.0"
     inkscape:pageopacity="0.0"
     inkscape:pageshadow="2"
     inkscape:zoom="1.4"
     inkscape:cx="17.453591"
     inkscape:cy="152.19362"
     inkscape:document-units="px"
     inkscape:current-layer="layer2"
     showgrid="false"
     inkscape:window-width="1317"
     inkscape:window-height="750"
     inkscape:window-x="49"
     inkscape:window-y="18"
     inkscape:window-maximized="1"
     units="px" />
  <metadata
     id="metadata7">
    <rdf:RDF>
      <cc:Work
         rdf:about="">
        <dc:format>image/svg+xml</dc:format>
        <dc:type
           rdf:resource="http://purl.org/dc/dcmitype/StillImage" />
        <dc:title></dc:title>
      </cc:Work>
    </rdf:RDF>
  </metadata>
  <g
     inkscape:groupmode="layer"
     id="layer2"
     inkscape:label="Layer 2"
     style="display:inline"
     transform="translate(0,-818.36219)">
    <circle
       style="fill:#0044aa;stroke:#afc6e9;stroke-width:8;stroke-miterlimit:4;stroke-dasharray:none;stroke-opacity:1"
       id="path3385"
       cx="117.57143"
       cy="935.50507"
       r="112.85714" />
  </g>
  <g
     inkscape:label="Layer 1"
     inkscape:groupmode="layer"
     id="layer1"
     transform="translate(0,-818.36219)">
    <path
       style="fill:#afc6e9;fill-opacity:1;fill-rule:nonzero;stroke:none;stroke-width:1px;stroke-linecap:butt;stroke-linejoin:miter;stroke-opacity:1"
       id="path3346"
       d="m 118.81534,877.86846 c -0.1754,4.51605 -0.17339,9.03562 -0.21404,13.55365 -0.11046,7.19647 -2.0704,16.11817 -2.0858,23.31491 -0.0263,7.50728 0.0107,15.0145 0.005,22.52169 0.0534,6.36042 0.0703,12.72113 0.0628,19.08171 0.004,5.33985 0.0355,10.67964 0.0896,16.01927 0.22327,3.26385 0.15085,15.06247 -0.83866,18.2257 -1.50488,3.70064 -3.40736,8.20804 -5.30582,11.77081 -2.36839,4.4402 -4.96634,-2.45317 -9.60264,0.3466 -10.018424,5.2747 -25.830253,11.574 -37.533992,13.413 -2.74862,0.3439 -5.527926,0.3478 -8.297808,0.3076 -4.298533,-0.6235 -7.589306,-6.9961 -10.455367,-9.6356 -2.66913,-2.9209 -5.204822,-5.9321 -7.652883,-8.99314 -1.552092,-1.71842 -2.840796,-0.17965 -4.565163,-1.77469 -0.457069,-0.50499 -0.761406,-1.06335 -1.310464,-1.49513 l 18.207322,-21.59876 0,0 c 0.476535,0.50052 0.87098,1.0189 1.293783,1.55304 1.648425,1.73762 3.009842,3.66646 4.512699,5.49768 2.355149,2.99201 4.775022,5.95099 7.387812,8.78094 2.678918,2.33777 5.622532,16.97486 9.693456,16.94466 2.667359,-0.034 5.350713,-0.073 7.968589,-0.5715 1.922232,-0.4033 3.794682,-0.8675 5.638152,-1.497 0.82846,-0.2829 3.21643,-1.3088 2.45905,-0.904 -6.11454,3.2683 -22.013804,11.0636 -12.767893,6.5225 0.654309,-0.3534 3.958788,-2.1102 4.589453,-2.5606 2.37173,-1.6939 3.83752,-4.1764 5.3828,-6.4098 1.95474,-3.43479 3.63851,-6.98911 5.30802,-10.53221 0.085,-0.22999 0.91477,-2.45457 0.97683,-2.70279 0.53273,-2.13074 0.0596,-4.35047 0.2919,-6.50396 0.0539,-5.36589 0.0854,-10.73193 0.0896,-16.09803 -0.008,-6.37897 0.009,-12.75806 0.0627,-19.13686 -0.006,-7.50859 0.0311,-15.0172 0.005,-22.52588 -0.0154,-7.17161 -3.97499,-14.34313 -4.08579,-21.51447 -0.0404,-4.45531 -0.0369,-8.91227 -0.21404,-13.36552 l 30.906244,-10.03382 z"
       inkscape:connector-curvature="0"
       sodipodi:nodetypes="ccccccccccccccccccccccsscsccscccccccc"
       inkscape:export-xdpi="90"
       inkscape:export-ydpi="90" />
    <path
       style="fill:#afc6e9;fill-opacity:1;fill-rule:nonzero;stroke:none;stroke-width:1px;stroke-linecap:butt;stroke-linejoin:miter;stroke-opacity:1"
       id="path3346-0"
       d="m 127.93847,1016.099 c 0.1754,-4.5161 0.17339,-9.0356 0.21404,-13.5537 0.11046,-7.19644 2.0704,-16.11813 2.0858,-23.31487 0.0263,-7.50729 -0.0107,-15.0145 -0.005,-22.5217 -0.0534,-6.36042 -0.0703,-12.72112 -0.0628,-19.0817 -0.004,-5.33985 -0.0355,-10.67964 -0.0896,-16.01927 -0.22327,-3.26385 -0.15085,-15.06247 0.83866,-18.2257 1.50488,-3.70064 3.40736,-8.20805 5.30582,-11.77079 2.36839,-4.44021 4.96634,2.45315 9.60264,-0.34658 10.01841,-5.27473 25.83024,-11.57408 37.53398,-13.41302 2.74862,-0.3439 5.52793,-0.34783 8.29781,-0.30761 4.29853,0.62349 7.58931,6.99609 10.45537,9.6356 2.66913,2.92089 5.20482,5.93209 7.65288,8.99313 1.55209,1.71841 2.8408,0.17964 4.56516,1.77469 0.45707,0.50499 0.76141,1.06335 1.31047,1.49513 l -18.20732,21.59876 0,0 c -0.47654,-0.50052 -0.87098,-1.0189 -1.29379,-1.55304 -1.64842,-1.73762 -3.00984,-3.66646 -4.5127,-5.49768 -2.35515,-2.99201 -4.77502,-5.95099 -7.38781,-8.78095 -2.67892,-2.33777 -5.62253,-16.97486 -9.69345,-16.94468 -2.66736,0.0345 -5.35072,0.0732 -7.96859,0.57157 -1.92223,0.40325 -3.79469,0.86742 -5.63816,1.49695 -0.82846,0.28292 -3.21643,1.30884 -2.45904,0.904 6.11454,-3.26831 22.0138,-11.06361 12.76789,-6.52249 -0.65431,0.35344 -3.95879,2.11017 -4.58945,2.5606 -2.37174,1.69394 -3.83753,4.17642 -5.3828,6.40977 -1.95474,3.43481 -3.63851,6.98914 -5.30803,10.53224 -0.085,0.22999 -0.91477,2.45457 -0.97682,2.70278 -0.53273,2.13075 -0.0596,4.35048 -0.29191,6.50397 -0.0539,5.36589 -0.0854,10.73192 -0.0896,16.09803 0.008,6.37897 -0.01,12.75805 -0.0627,19.13686 0.006,7.50858 -0.0311,15.0172 -0.005,22.52587 0.0154,7.17161 3.97499,14.34314 4.08579,21.51447 0.0404,4.45531 0.0369,8.91226 0.21404,13.36556 l -30.90623,10.0338 z"
       inkscape:connector-curvature="0"
       sodipodi:nodetypes="ccccccccccccccccccccccsscsccscccccccc"
       inkscape:export-xdpi="90"
       inkscape:export-ydpi="90" />
  </g>
</svg>
